<?xml version="1.0" standalone="no"?><!-- Generator: Gravit.io --><svg xmlns="http://www.w3.org/2000/svg" xmlns:xlink="http://www.w3.org/1999/xlink" style="isolation:isolate" viewBox="0 0 256 256" width="256" height="256"><defs><clipPath id="_clipPath_sMc6677ryW38tg3ZXO37gKUU95m1e3GQ"><rect width="256" height="256"/></clipPath></defs><g clip-path="url(#_clipPath_sMc6677ryW38tg3ZXO37gKUU95m1e3GQ)"><g style="isolation:isolate" id="Layer 0"><path d=" M 9.259 128 C 9.259 65.705 62.465 15.129 128 15.129 C 193.535 15.129 246.741 65.705 246.741 128 C 246.741 190.295 193.535 240.871 128 240.871 C 62.465 240.871 9.259 190.295 9.259 128 Z " fill="rgb(115,82,66)"/></g><g style="isolation:isolate" id="Layer 1"><path d=" M 60.575 208.154 C 41.403 195.159 28 165.564 28 131.17 C 28 84.787 52.376 47.129 82.401 47.129 C 101.488 47.129 118.292 62.348 128 85.354 C 137.708 62.348 154.512 47.129 173.599 47.129 C 203.624 47.129 228 84.787 228 131.17 C 228 165.564 214.597 195.159 195.425 208.154 C 181.374 218.847 156.419 225.963 128 225.963 C 99.581 225.963 74.626 218.847 60.575 208.154 Z " fill="rgb(225,215,190)"/></g><g style="isolation:isolate" id="Layer 2"><path d=" M 106.115 145.961 L 127.819 138.545 L 149.912 145.961 C 152.119 171.707 144.147 186.942 127.819 193.545 C 110.553 185.692 103.981 169.302 106.115 145.961 Z " fill-rule="evenodd" fill="rgb(174,141,70)"/><path d=" M 101.486 138.545 L 127.781 131.129 L 154.547 138.545 C 157.221 164.291 147.563 179.526 127.781 186.129 C 106.863 178.276 98.901 161.886 101.486 138.545 Z " fill-rule="evenodd" fill="rgb(210,170,85)"/></g><g style="isolation:isolate" id="Layer 3"><g opacity="0.29"><path d=" M 128 16.129 C 193.535 16.129 246.741 66.481 246.741 128.5 C 246.741 190.519 193.535 240.871 128 240.871 L 128 16.129 Z " fill="rgb(115,82,66)"/></g></g><g style="isolation:isolate" id="Layer 4"/></g></svg>